<?xml version="1.0" encoding="UTF-8" standalone="no"?>
<svg
   xmlns:dc="http://purl.org/dc/elements/1.1/"
   xmlns:cc="http://creativecommons.org/ns#"
   xmlns:rdf="http://www.w3.org/1999/02/22-rdf-syntax-ns#"
   xmlns:svg="http://www.w3.org/2000/svg"
   xmlns="http://www.w3.org/2000/svg"
   xmlns:sodipodi="http://sodipodi.sourceforge.net/DTD/sodipodi-0.dtd"
   xmlns:inkscape="http://www.inkscape.org/namespaces/inkscape"
   height="381pt"
   viewBox="0 -1 381.53417 381"
   width="381pt"
   id="svg2"
   version="1.1"
   inkscape:version="0.91 r13725"
   sodipodi:docname="HasNotesIcon2.svg">
  <metadata
     id="metadata16">
    <rdf:RDF>
      <cc:Work
         rdf:about="">
        <dc:format>image/svg+xml</dc:format>
        <dc:type
           rdf:resource="http://purl.org/dc/dcmitype/StillImage" />
        <dc:title></dc:title>
      </cc:Work>
    </rdf:RDF>
  </metadata>
  <defs
     id="defs14" />
  <sodipodi:namedview
     pagecolor="#000000"
     bordercolor="#666666"
     borderopacity="1"
     objecttolerance="10"
     gridtolerance="10"
     guidetolerance="10"
     inkscape:pageopacity="0"
     inkscape:pageshadow="2"
     inkscape:window-width="1536"
     inkscape:window-height="801"
     id="namedview12"
     showgrid="false"
     inkscape:zoom="0.49553806"
     inkscape:cx="238.125"
     inkscape:cy="238.125"
     inkscape:window-x="-8"
     inkscape:window-y="-8"
     inkscape:window-maximized="1"
     inkscape:current-layer="svg2" />
  <path
     d="m 341.79902,224.59362 c -4.6391,0 -8.39893,3.7801 -8.39893,8.44421 l 0,74.97864 c -0.0164,13.98243 -11.28606,25.31613 -25.19679,25.33263 l -235.665405,0 C 58.627168,333.3326 47.357513,321.9989 47.341109,308.01647 l 0,-220.047511 c 0.0164,-13.985722 11.286059,-25.316136 25.196786,-25.332627 l 74.573295,0 c 4.6391,0 8.39893,-3.780104 8.39893,-8.444209 0,-4.664107 -3.75983,-8.44421 -8.39893,-8.44421 l -74.573295,0 C 49.35554,45.774302 30.569498,64.661622 30.543252,87.968959 l 0,220.047511 c 0.02625,23.30734 18.812288,42.19466 41.994643,42.22104 l 235.665405,0 c 23.18236,-0.0263 41.9684,-18.9137 41.99465,-42.22104 l 0,-74.97534 c 0,-4.66411 -3.75984,-8.44751 -8.39893,-8.44751 z m 0,0"
     id="path4"
     style="fill:#c8c8c8;fill-opacity:1"
     inkscape:connector-curvature="0" />
  <path
     d="M 161.87494,180.15927 284.50914,56.860624 324.05955,96.624272 201.42536,219.92291 Z m 0,0"
     id="path6"
     style="fill:#c8c8c8;fill-opacity:1"
     inkscape:connector-curvature="0" />
  <path
     d="m 141.86514,240.04058 43.70724,-12.17153 -31.60097,-31.77133 z m 0,0"
     id="path8"
     style="fill:#c8c8c8;fill-opacity:1"
     inkscape:connector-curvature="0" />
  <path
     d="m 334.99457,35.961208 c -8.20536,-8.229805 -21.48944,-8.229805 -29.6948,0 l -8.90747,8.955479 39.55043,39.763648 8.90746,-8.955479 c 8.18896,-8.249596 8.18896,-21.605301 0,-29.854897 z m 0,0"
     id="path10"
     style="fill:#c8c8c8;fill-opacity:1"
     inkscape:connector-curvature="0" />
</svg>
