<?xml version="1.0" encoding="UTF-8" standalone="no"?>
<!-- Generator: Adobe Illustrator 19.0.0, SVG Export Plug-In . SVG Version: 6.00 Build 0)  -->

<svg
   xmlns:dc="http://purl.org/dc/elements/1.1/"
   xmlns:cc="http://creativecommons.org/ns#"
   xmlns:rdf="http://www.w3.org/1999/02/22-rdf-syntax-ns#"
   xmlns:svg="http://www.w3.org/2000/svg"
   xmlns="http://www.w3.org/2000/svg"
   xmlns:sodipodi="http://sodipodi.sourceforge.net/DTD/sodipodi-0.dtd"
   xmlns:inkscape="http://www.inkscape.org/namespaces/inkscape"
   version="1.1"
   id="svg2"
   sodipodi:docname="ShowAllTasksIcon.svg"
   inkscape:version="0.91 r13725"
   x="0px"
   y="0px"
   viewBox="-311 313 400 400"
   style="enable-background:new -311 313 400 400;"
   xml:space="preserve"><metadata
     id="metadata18"><rdf:RDF><cc:Work
         rdf:about=""><dc:format>image/svg+xml</dc:format><dc:type
           rdf:resource="http://purl.org/dc/dcmitype/StillImage" /></cc:Work></rdf:RDF></metadata><defs
     id="defs16" /><style
     type="text/css"
     id="style3">
	.st0{fill:none;}
	.st1{opacity:0.93;fill:#C8C8C8;enable-background:new    ;}
	.st2{fill:#C8C8C8;}
	.st3{opacity:0.93;fill:#7F7F7F;enable-background:new    ;}
	.st4{fill:#7F7F7F;}
</style><sodipodi:namedview
     units="px"
     showgrid="false"
     inkscape:cy="133.94047"
     inkscape:cx="228.42362"
     inkscape:zoom="0.98994949"
     borderopacity="1.0"
     bordercolor="#666666"
     pagecolor="#000000"
     id="base"
     inkscape:window-maximized="1"
     inkscape:window-y="-8"
     inkscape:current-layer="layer1"
     inkscape:document-units="px"
     inkscape:pageopacity="0"
     inkscape:window-x="-8"
     inkscape:window-height="801"
     inkscape:window-width="1536"
     inkscape:pageshadow="2" /><g
     id="layer1"
     transform="translate(0,-652.36216)"
     inkscape:label="Layer 1"
     inkscape:groupmode="layer"><path
       id="rect4139"
       class="st0"
       d="M-376.8,1020.2h341.2c1,0,1.7,0.8,1.7,1.7v341.2c0,1-0.8,1.7-1.7,1.7h-341.2   c-1,0-1.7-0.8-1.7-1.7V1022C-378.5,1021-377.7,1020.2-376.8,1020.2z" /><circle
       id="path4139"
       class="st1"
       cx="-218.8"
       cy="1081.6"
       r="87.5"
       style="opacity:0.93000034;fill:#c8c8c8;enable-background:new" /><path
       class="st2"
       d="m -400,1367.8061 c 108.2,-242.0748 256,-242.9747 347.5,0"
       id="path9"
       inkscape:connector-curvature="0"
       style="fill:#c8c8c8" /></g><g
     id="layer1_2_"
     transform="translate(0,-652.36216)"
     inkscape:label="Layer 1"
     inkscape:groupmode="layer"><path
       id="rect4139_2_"
       class="st0"
       d="M-181.8,1020.2h341.2c1,0,1.7,0.8,1.7,1.7v341.2c0,1-0.8,1.7-1.7,1.7h-341.2   c-1,0-1.7-0.8-1.7-1.7V1022C-183.5,1021-182.7,1020.2-181.8,1020.2z" /><circle
       id="path4139_2_"
       class="st3"
       cx="0.20000076"
       cy="1081.6"
       r="87.5"
       style="opacity:0.93000034;fill:#7f7f7f;enable-background:new" /><path
       class="st4"
       d="m -181,1367.8061 c 108.2,-242.0748 256,-242.9747 347.5,0"
       id="path14"
       inkscape:connector-curvature="0"
       style="fill:#7f7f7f" /></g></svg>