<?xml version="1.0" encoding="UTF-8" standalone="no"?>
<!-- Generator: Adobe Illustrator 19.0.0, SVG Export Plug-In . SVG Version: 6.00 Build 0)  -->

<svg
   xmlns:dc="http://purl.org/dc/elements/1.1/"
   xmlns:cc="http://creativecommons.org/ns#"
   xmlns:rdf="http://www.w3.org/1999/02/22-rdf-syntax-ns#"
   xmlns:svg="http://www.w3.org/2000/svg"
   xmlns="http://www.w3.org/2000/svg"
   xmlns:sodipodi="http://sodipodi.sourceforge.net/DTD/sodipodi-0.dtd"
   xmlns:inkscape="http://www.inkscape.org/namespaces/inkscape"
   version="1.1"
   id="Capa_1"
   x="0px"
   y="0px"
   viewBox="0 0 512 512"
   style="enable-background:new 0 0 512 512;"
   xml:space="preserve"
   inkscape:version="0.91 r13725"
   sodipodi:docname="DeleteTaskListIcon.svg"><metadata
     id="metadata57"><rdf:RDF><cc:Work
         rdf:about=""><dc:format>image/svg+xml</dc:format><dc:type
           rdf:resource="http://purl.org/dc/dcmitype/StillImage" /><dc:title></dc:title></cc:Work></rdf:RDF></metadata><defs
     id="defs55" /><sodipodi:namedview
     pagecolor="#1b1b1b"
     bordercolor="#666666"
     borderopacity="1"
     objecttolerance="10"
     gridtolerance="10"
     guidetolerance="10"
     inkscape:pageopacity="0"
     inkscape:pageshadow="2"
     inkscape:window-width="1536"
     inkscape:window-height="801"
     id="namedview53"
     showgrid="false"
     inkscape:zoom="0.4609375"
     inkscape:cx="256"
     inkscape:cy="256"
     inkscape:window-x="-8"
     inkscape:window-y="-8"
     inkscape:window-maximized="1"
     inkscape:current-layer="Capa_1" /><g
     id="g4185"
     transform="matrix(0.8381492,0,0,0.78125,35.433805,64.271186)"><g
       style="fill:#ffffff;fill-opacity:1"
       id="g3"><g
         style="fill:#ffffff;fill-opacity:1"
         id="g5"><g
           style="fill:#ffffff;fill-opacity:1"
           id="g7"><polygon
             style="fill:#ffffff;fill-opacity:1"
             id="polygon9"
             points="353.574,176.526 313.496,175.056 304.807,412.34 344.885,413.804 " /><rect
             style="fill:#ffffff;fill-opacity:1"
             id="rect11"
             height="237.285"
             width="40.104"
             y="175.791"
             x="235.948" /><polygon
             style="fill:#ffffff;fill-opacity:1"
             id="polygon13"
             points="207.186,412.334 198.497,175.049 158.419,176.52 167.109,413.804 " /><path
             style="fill:#ffffff;fill-opacity:1"
             id="path15"
             d="m 17.379,76.867 0,40.104 41.789,0 33.152,376.735 C 93.229,504.059 101.899,512 112.292,512 l 286.74,0 c 10.394,0 19.07,-7.947 19.972,-18.301 l 33.153,-376.728 42.464,0 0,-40.104 -477.242,0 z m 363.286,395.029 -250.011,0 -31.228,-354.925 312.474,0 -31.235,354.925 z"
             inkscape:connector-curvature="0" /></g></g></g><g
       style="fill:#ffffff;fill-opacity:1"
       id="g17"><g
         style="fill:#ffffff;fill-opacity:1"
         id="g19"><path
           style="fill:#ffffff;fill-opacity:1"
           id="path21"
           d="M 321.504,0 190.496,0 c -18.428,0 -33.42,14.992 -33.42,33.42 l 0,63.499 40.104,0 0,-56.815 117.64,0 0,56.815 40.104,0 0,-63.499 C 354.924,14.992 339.932,0 321.504,0 Z"
           inkscape:connector-curvature="0" /></g></g></g><g
     id="g23" /><g
     id="g25" /><g
     id="g27" /><g
     id="g29" /><g
     id="g31" /><g
     id="g33" /><g
     id="g35" /><g
     id="g37" /><g
     id="g39" /><g
     id="g41" /><g
     id="g43" /><g
     id="g45" /><g
     id="g47" /><g
     id="g49" /><g
     id="g51" /></svg>