<?xml version="1.0" encoding="utf-8"?>
<!-- Generator: Adobe Illustrator 19.0.0, SVG Export Plug-In . SVG Version: 6.00 Build 0)  -->
<svg version="1.1" id="Layer_1" xmlns="http://www.w3.org/2000/svg" xmlns:xlink="http://www.w3.org/1999/xlink" x="0px" y="0px"
	 viewBox="-383 388 256 250" style="enable-background:new -383 388 256 250;" xml:space="preserve">
<style type="text/css">
	.st0{fill:#FFFFFF;}
</style>
<g>
	<path class="st0" d="M-255,388c-70.7,0-128,57.3-128,128c0,56.6,36.7,104.5,87.5,121.5c6.4,1.2,8.7-2.8,8.7-6.2
		c0-3.1-0.1-13.1-0.2-23.8c-35.6,7.7-43.1-15.1-43.1-15.1c-5.8-14.8-14.2-18.7-14.2-18.7c-11.6-7.9,0.9-7.8,0.9-7.8
		c12.9,0.9,19.6,13.2,19.6,13.2c11.4,19.6,29.9,13.9,37.2,10.6c1.1-8.3,4.5-13.9,8.1-17.1c-28.4-3.2-58.3-14.2-58.3-63.3
		c0-14,5-25.4,13.2-34.4c-1.3-3.2-5.7-16.2,1.2-33.9c0,0,10.7-3.4,35.2,13.1c10.2-2.8,21.2-4.3,32-4.3c10.9,0,21.8,1.5,32.1,4.3
		c24.4-16.6,35.2-13.1,35.2-13.1c7,17.6,2.6,30.7,1.3,33.9c8.2,9,13.2,20.4,13.2,34.4c0,49.2-29.9,60-58.4,63.2
		c4.6,4,8.7,11.8,8.7,23.7c0,17.1-0.1,30.9-0.1,35.1c0,3.4,2.3,7.4,8.8,6.1c50.8-16.9,87.5-64.9,87.5-121.4
		C-127,445.3-184.3,388-255,388z M-335.1,570.3c-0.3,0.6-1.3,0.8-2.2,0.4c-0.9-0.4-1.4-1.3-1.1-1.9c0.3-0.7,1.3-0.8,2.2-0.4
		C-335.3,568.8-334.7,569.7-335.1,570.3z M-328.8,576c-0.6,0.6-1.8,0.3-2.6-0.6c-0.8-0.9-1-2.1-0.4-2.7c0.6-0.6,1.8-0.3,2.6,0.6
		C-328.3,574.2-328.1,575.4-328.8,576z M-324.4,583.1c-0.8,0.5-2.1,0-2.9-1.1c-0.8-1.1-0.8-2.5,0-3.1c0.8-0.5,2.1-0.1,2.9,1.1
		C-323.6,581.2-323.6,582.6-324.4,583.1z M-317.1,591.5c-0.7,0.8-2.2,0.6-3.3-0.5c-1.1-1-1.4-2.5-0.7-3.3c0.7-0.8,2.2-0.6,3.3,0.5
		C-316.7,589.2-316.4,590.7-317.1,591.5z M-307.7,594.3c-0.3,1-1.7,1.5-3.2,1c-1.4-0.4-2.4-1.6-2.1-2.6c0.3-1,1.7-1.5,3.2-1
		C-308.3,592.1-307.4,593.3-307.7,594.3z M-297,595.5c0,1.1-1.2,1.9-2.7,2c-1.5,0-2.8-0.8-2.8-1.9c0-1.1,1.2-1.9,2.7-2
		C-298.2,593.6-297,594.4-297,595.5z M-286.4,595.1c0.2,1-0.9,2.1-2.4,2.4c-1.5,0.3-2.9-0.4-3.1-1.4c-0.2-1.1,0.9-2.1,2.4-2.4
		C-287.9,593.4-286.6,594-286.4,595.1z"/>
</g>
</svg>
