<?xml version="1.0" encoding="utf-8"?>
<!-- Generator: Adobe Illustrator 19.0.0, SVG Export Plug-In . SVG Version: 6.00 Build 0)  -->
<svg version="1.1" id="Layer_1" xmlns="http://www.w3.org/2000/svg" xmlns:xlink="http://www.w3.org/1999/xlink" x="0px" y="0px"
	 viewBox="0 0 1024 1024" style="enable-background:new 0 0 1024 1024;" xml:space="preserve">
<style type="text/css">
	.st0{fill:#010101;}
	.st1{fill:url(#XMLID_7_);}
	.st2{fill:url(#XMLID_8_);}
	.st3{fill:url(#XMLID_9_);}
	.st4{fill:url(#XMLID_10_);}
</style>
<path id="XMLID_5_" class="st0" d="M971.6,1023.4H48.4C20.5,1023.4-2,1000.9-2,973V52.2C-2,24.3,20.5,1.8,48.4,1.8h923.1
	c27.9,0,50.4,22.5,50.4,50.4V973C1022,1000.9,999.5,1023.4,971.6,1023.4z"/>
<linearGradient id="XMLID_7_" gradientUnits="userSpaceOnUse" x1="-2.0835" y1="399.6556" x2="222.8666" y2="592.2178">
	<stop  offset="0" style="stop-color:#D82C82"/>
	<stop  offset="1" style="stop-color:#B72567"/>
</linearGradient>
<path id="XMLID_2_" class="st1" d="M233.3,1024.6H27.6c-16.3,0-29.6-10.9-29.6-24.5V26.2C-2,12.7,11.2,1.7,27.6,1.7h205.8
	c16.3,0,29.6,10.9,29.6,24.5v973.9C263,1013.7,249.7,1024.6,233.3,1024.6z"/>
<linearGradient id="XMLID_8_" gradientUnits="userSpaceOnUse" x1="328.0856" y1="68.09" x2="692.6152" y2="380.5296">
	<stop  offset="0" style="stop-color:#D82C82"/>
	<stop  offset="1" style="stop-color:#B72567"/>
</linearGradient>
<path id="XMLID_4_" class="st2" d="M642.5,439h-265V17c0-9.1,6.6-16.4,14.9-16.4h235.2c8.2,0,14.9,7.3,14.9,16.4L642.5,439
	L642.5,439z"/>
<linearGradient id="XMLID_9_" gradientUnits="userSpaceOnUse" x1="377.5" y1="804.2" x2="642.4101" y2="804.2">
	<stop  offset="0" style="stop-color:#F68B21"/>
	<stop  offset="1" style="stop-color:#CB7028"/>
</linearGradient>
<path id="XMLID_3_" class="st3" d="M623.5,1023.4H396.7c-10.6,0-19.2-9.5-19.2-21.2V585h264.9v417.3
	C642.5,1014.1,634,1023.4,623.5,1023.4z"/>
<linearGradient id="XMLID_10_" gradientUnits="userSpaceOnUse" x1="570.0931" y1="239.3852" x2="1208.9069" y2="786.9148">
	<stop  offset="0" style="stop-color:#F68B21"/>
	<stop  offset="1" style="stop-color:#CB7028"/>
</linearGradient>
<path id="XMLID_1_" class="st4" d="M987.2,1024.6H791.8c-19.2,0-34.8-12.9-34.8-28.8V30.5c0-15.9,15.6-28.8,34.8-28.8h195.5
	c19.2,0,34.8,12.9,34.8,28.8v965.3C1022,1011.7,1006.4,1024.6,987.2,1024.6z"/>
</svg>
