<?xml version="1.0" encoding="UTF-8" standalone="no"?>
<!-- Generator: Adobe Illustrator 16.0.0, SVG Export Plug-In . SVG Version: 6.00 Build 0)  -->

<svg
   xmlns:dc="http://purl.org/dc/elements/1.1/"
   xmlns:cc="http://creativecommons.org/ns#"
   xmlns:rdf="http://www.w3.org/1999/02/22-rdf-syntax-ns#"
   xmlns:svg="http://www.w3.org/2000/svg"
   xmlns="http://www.w3.org/2000/svg"
   xmlns:sodipodi="http://sodipodi.sourceforge.net/DTD/sodipodi-0.dtd"
   xmlns:inkscape="http://www.inkscape.org/namespaces/inkscape"
   version="1.1"
   id="Layer_1"
   x="0px"
   y="0px"
   width="512px"
   height="512px"
   viewBox="0 0 512 512"
   enable-background="new 0 0 512 512"
   xml:space="preserve"
   inkscape:version="0.91 r13725"
   sodipodi:docname="LockIcon.svg"><metadata
     id="metadata9"><rdf:RDF><cc:Work
         rdf:about=""><dc:format>image/svg+xml</dc:format><dc:type
           rdf:resource="http://purl.org/dc/dcmitype/StillImage" /><dc:title></dc:title></cc:Work></rdf:RDF></metadata><defs
     id="defs7" /><sodipodi:namedview
     pagecolor="#000000"
     bordercolor="#666666"
     borderopacity="1"
     objecttolerance="10"
     gridtolerance="10"
     guidetolerance="10"
     inkscape:pageopacity="0"
     inkscape:pageshadow="2"
     inkscape:window-width="1920"
     inkscape:window-height="1017"
     id="namedview5"
     showgrid="false"
     inkscape:zoom="0.921875"
     inkscape:cx="239.98399"
     inkscape:cy="120.3707"
     inkscape:window-x="-8"
     inkscape:window-y="-8"
     inkscape:window-maximized="1"
     inkscape:current-layer="Layer_1" /><path
     d="m 389.42373,225.08474 0,-96 c 0,-70.561994 -57.406,-127.9999943 -128,-127.9999943 -70.578,0 -128,57.4380003 -128,127.9999943 l 0,96 c -35.344001,0 -64.000001,28.656 -64.000001,64 l 0,160 c 0,35.344 28.656,64 64.000001,64 l 256,0 c 35.344,0 64,-28.656 64,-64 l 0,-160 c 0,-35.344 -28.656,-64 -64,-64 z m -112,155.094 0,52.906 c 0,8.844 -7.156,16 -16,16 -8.844,0 -16,-7.156 -16,-16 l 0,-52.906 c -9.391,-5.563 -16,-15.375 -16,-27.094 0,-17.688 14.328,-32 32,-32 17.672,0 32,14.313 32,32 0,11.719 -6.609,21.531 -16,27.094 z m 48,-155.094 -128,0 0,-96 c 0,-35.312994 28.703,-63.999994 64,-63.999994 35.281,0 64,28.688 64,63.999994 l 0,96 z"
     id="path3"
     style="fill:#ffffff;fill-opacity:1"
     inkscape:connector-curvature="0" /></svg>