<?xml version="1.0" encoding="UTF-8" standalone="no"?>
<svg
   xmlns:dc="http://purl.org/dc/elements/1.1/"
   xmlns:cc="http://creativecommons.org/ns#"
   xmlns:rdf="http://www.w3.org/1999/02/22-rdf-syntax-ns#"
   xmlns:svg="http://www.w3.org/2000/svg"
   xmlns="http://www.w3.org/2000/svg"
   xmlns:sodipodi="http://sodipodi.sourceforge.net/DTD/sodipodi-0.dtd"
   xmlns:inkscape="http://www.inkscape.org/namespaces/inkscape"
   id="svg1393"
   sodipodi:version="0.32"
   inkscape:version="0.91 r13725"
   width="210mm"
   height="297mm"
   sodipodi:docname="LoadingIcon.svg"
   version="1.1">
  <metadata
     id="metadata1398">
    <rdf:RDF>
      <cc:Work
         rdf:about="">
        <dc:format>image/svg+xml</dc:format>
        <dc:type
           rdf:resource="http://purl.org/dc/dcmitype/StillImage" />
        <cc:license
           rdf:resource="http://web.resource.org/cc/PublicDomain" />
        <dc:title></dc:title>
      </cc:Work>
      <cc:License
         rdf:about="http://web.resource.org/cc/PublicDomain">
        <cc:permits
           rdf:resource="http://web.resource.org/cc/Reproduction" />
        <cc:permits
           rdf:resource="http://web.resource.org/cc/Distribution" />
        <cc:permits
           rdf:resource="http://web.resource.org/cc/DerivativeWorks" />
      </cc:License>
    </rdf:RDF>
  </metadata>
  <defs
     id="defs1396" />
  <sodipodi:namedview
     inkscape:window-height="1017"
     inkscape:window-width="1920"
     inkscape:pageshadow="2"
     inkscape:pageopacity="0"
     borderopacity="1.0"
     bordercolor="#666666"
     pagecolor="#000000"
     id="base"
     inkscape:zoom="0.35824168"
     inkscape:cx="415.17555"
     inkscape:cy="291.45771"
     inkscape:window-x="-8"
     inkscape:window-y="-8"
     inkscape:current-layer="svg1393"
     showgrid="false"
     inkscape:window-maximized="1" />
  <path
     style="fill:#ffffff;fill-opacity:1"
     d="m 155.92903,988.8033 c -19.01496,-39.10883 5.90447,-82.27524 -3.60567,-123.23263 3.00175,-66.31006 8.68498,-136.71979 -28.52115,-197.01603 C 98.366021,625.1673 54.41598,586.11608 57.851452,533.50804 61.237094,475.21711 37.562968,418.06157 44.853097,359.97872 c 18.215425,-38.23965 67.531133,-54.74825 86.154943,-93.60433 34.55314,-23.22658 20.41658,-74.63158 72.51264,-81.83204 46.39639,-9.55419 87.22709,-31.37287 124.46433,-57.39362 41.69316,-26.98339 85.95184,-55.097482 137.35567,-63.20192 65.31121,-7.001336 66.04797,60.76766 101.24662,89.48567 52.40112,-1.74672 118.42819,16.55422 122.41842,73.17252 9.71824,58.50408 -23.04947,114.51954 -15.83989,173.1217 3.86455,42.44957 -29.55145,75.87725 -37.279,114.81216 -5.94038,52.84139 6.37738,117.29475 -43.62305,156.2002 -23.99685,37.67794 -15.71657,84.72382 -37.49305,124.03502 -19.22719,41.5335 -2.98309,85.81693 -11.45833,128.35381 -20.85208,26.37137 -27.37508,-40.27668 -33.41534,-53.35027 -2.25774,-45.98392 -76.93824,-58.39264 -77.29796,-5.20725 0.34055,18.68482 -14.5189,74.87032 -31.14799,32.91497 6.98544,-35.27608 -1.55978,-68.99384 -36.70042,-89.50882 -6.29014,-27.7718 54.67293,-17.22126 55.77221,-50.41613 1.4406,-23.40765 53.39072,-56.55434 42.47031,-14.63936 -13.12922,46.76031 54.77178,66.7051 70.92735,18.87654 29.0876,-40.08832 -30.58488,-91.00188 28.98882,-114.84716 46.24829,-24.42903 40.0665,-74.59503 44.67725,-115.7021 -1.73717,-41.74967 38.51286,-73.45392 34.58004,-115.08541 -6.79567,-20.15376 14.53557,-65.72127 -31.43215,-46.64063 -18.00097,13.23686 -98.99596,-10.88563 -53.23701,24.1001 37.35328,6.12944 24.87867,30.76953 19.47148,51.88351 31.43943,36.14304 -44.03259,24.31111 -35.33954,64.72028 -8.73911,34.65247 -53.79663,30.49684 -66.51014,65.58102 -25.33111,16.98827 -16.90116,53.7522 -19.93233,69.21076 -35.77181,-13.75223 -35.24576,-63.25325 -73.84316,-78.65384 -41.25733,-28.27612 -99.59718,-37.52018 -148.42411,-22.88654 -40.58238,-3.77252 10.75547,-36.93054 -16.21714,-56.17487 -0.76005,-21.16693 26.03172,-40.71403 -9.16785,-55.6989 -28.78432,-11.45101 -17.77358,-34.42626 10.65305,-22.5079 28.43923,1.49769 61.56557,-57.00686 59.27828,-5.65388 8.25949,22.92088 27.46161,47.32503 -14.33394,46.56047 -48.8004,23.3681 10.71939,76.75086 51.22305,55.05902 40.10748,-6.77348 71.4734,-37.42232 86.95925,-70.04266 0.0447,-39.24896 -17.29096,-79.48585 -27.07597,-118.2276 C 355.80338,265.80455 296.65822,264.3579 251.92602,285.24253 197.99007,296.18497 139.7116,306.3731 96.393483,339.19997 61.184356,368.2857 85.94581,412.22956 83.172665,448.75881 c 5.189297,51.2747 -7.206651,107.13703 25.293095,152.98917 25.51028,43.98967 68.06656,82.52145 68.56377,135.13422 10.69837,43.98937 -4.1468,87.94393 1.72927,131.4513 11.3208,37.19029 17.95539,88.87134 -11.89744,121.29527 -3.48784,1.39203 -7.76291,1.1266 -10.93233,-0.82547 z m 286.0895,-578.4068 c 36.11785,-39.4634 3.49635,-89.37264 -7.06284,-131.45132 1.65849,-46.57881 -42.7001,-83.88365 -92.51933,-57.95651 -46.59793,12.95901 -89.25273,39.74791 -140.04798,36.33549 -25.48067,-5.9259 -62.40693,32.70544 -16.78985,22.16498 54.67027,-6.73576 107.01972,-40.93118 163.36214,-27.17522 46.39059,17.64359 42.64818,72.58855 61.60148,108.86273 9.24352,11.78318 6.00152,61.06393 31.45638,49.21985 z m 64.42322,-46.51273 c 10.45741,-38.72455 -13.23146,-78.29472 -12.24995,-117.26271 -16.0352,-34.16497 -22.33191,-96.3157 -78.2548,-88.64574 -64.20748,10.80146 -122.78058,38.38837 -184.61207,56.33796 -36.04838,-4.40239 -32.11888,39.08861 1.79252,19.12523 49.93877,-14.42244 98.18442,-34.68544 149.57035,-44.33989 58.42206,-6.68155 69.18364,58.14261 81.47245,95.65143 11.58375,21.7722 7.03728,82.19245 42.2815,79.13372 z m 94.61824,-35.5261 c 51.67594,-7.774 70.50384,-58.52007 62.77005,-99.63237 -0.82854,-39.40389 -82.08082,-71.55192 -99.57541,-31.54069 10.14911,31.69038 68.13495,3.27606 73.94297,45.25886 21.77742,54.27368 -51.03719,37.70356 -82.87793,27.12367 -44.13897,-3.90378 -29.3826,67.86723 11.76026,60.56215 11.31917,1.01579 22.89618,0.63247 33.98006,-1.77162 z m 11.19298,-65.43253 c 31.27195,-41.9784 -86.32459,-43.0551 -52.488,-10.58621 17.7173,2.63979 34.45675,9.47124 52.488,10.58621 z m -89.3975,-41.55186 c 34.34196,-37.56788 -2.8768,-97.51941 -34.92939,-125.31165 -44.43945,-7.410984 -93.86254,23.15232 -124.01534,46.46473 33.87898,-0.9237 74.57892,-24.76077 105.12548,2.99281 33.16714,15.48182 17.18781,65.00711 53.81925,75.85411 z"
     id="path1441"
     inkscape:connector-curvature="0" />
</svg>
